{
  "accessors": [
    {
      "bufferView": 0,
      "componentType": 5125,
      "count": 15360,
      "type": "SCALAR"
    },
    {
      "bufferView": 1,
      "componentType": 5126,
      "count": 3856,
      "max": [
        0.04227681714102406,
        0.04192802616924807,
        0.011010501987311367
      ],
      "min": [
        -0.04227681714102402,
        -0.041928026169247845,
        -0.011010501987311367
      ],
      "type": "VEC3"
    },
    {
      "bufferView": 2,
      "componentType": 5126,
      "count": 3856,
      "max": [
        1.0,
        1.0,
        1.0
      ],
      "min": [
        -1.0,
        -1.0,
        -1.0
      ],
      "type": "VEC3"
    },
    {
      "bufferView": 3,
      "componentType": 5126,
      "count": 3856,
      "max": [
        0.9300570372121619,
        1.0
      ],
      "min": [
        0.0,
        0.0
      ],
      "type": "VEC2"
    }
  ],
  "asset": {
    "generator": "Adobe Illustrator",
    "version": "2.0"
  },
  "bufferViews": [
    {
      "buffer": 0,
      "byteLength": 61440,
      "target": 34963
    },
    {
      "buffer": 0,
      "byteLength": 46272,
      "byteOffset": 61440,
      "target": 34962
    },
    {
      "buffer": 0,
      "byteLength": 46272,
      "byteOffset": 107712,
      "target": 34962
    },
    {
      "buffer": 0,
      "byteLength": 30848,
      "byteOffset": 153984,
      "target": 34962
    }
  ],
  "buffers": [
    {
      "byteLength": 184832,
      "uri": "data:application/octet-stream;base64,"
    }
  ],
  "materials": [
    {
      "doubleSided": true,
      "pbrMetallicRoughness": {
        "baseColorFactor": [
          0.734375,
          0.7421875,
          0.75,
          1.0
        ],
        "metallicFactor": 0.0,
        "roughnessFactor": 0.4000000059604645
      }
    }
  ],
  "meshes": [
    {
      "primitives": [
        {
          "attributes": {
            "NORMAL": 2,
            "POSITION": 1,
            "TEXCOORD_0": 3
          },
          "indices": 0,
          "material": 0,
          "mode": 4
        }
      ]
    }
  ],
  "nodes": [
    {
      "mesh": 0
    }
  ],
  "scenes": [
    {
      "nodes": [
        0
      ]
    }
  ]
}
